<svg width="100%" height="100%" viewBox="0 0 2910 595" version="1.1" xmlns="http://www.w3.org/2000/svg"
     xmlns:xlink="http://www.w3.org/1999/xlink" xml:space="preserve" xmlns:serif="http://www.serif.com/"
     style="fill-rule:evenodd;clip-rule:evenodd;stroke-linejoin:round;stroke-miterlimit:2;">
    <g transform="matrix(9.09091,0,0,9.09091,0,0)">
        <g id="SvgjsG1051">
            <g>
                <path d="M130.6,61.8C132.4,62.9 135,65.6 135,71.3C135,76 129.6,78.5 124.7,79.8C114.8,80.9 108,83.3 108,86.1C108,90 121.2,93.1 137.5,93.1C153.8,93.1 167,90 167,86.1C167,83.3 160.1,80.9 150.2,79.8C144.9,78.5 138.9,76 139,71.3C139.1,65.5 141.9,62.9 143.6,61.8C149.7,59.1 154,53 154,46C154,36.6 146.4,29 137,29C127.6,29 120,36.6 120,46C120,53.1 124.4,59.3 130.6,61.8ZM124.6,40.7C125.8,37.5 128.4,35 131.5,33.7C132.3,33.4 133.1,33.8 133.5,34.5C133.8,35.3 133.4,36.1 132.7,36.5C130.3,37.5 128.4,39.4 127.4,41.8C127.1,42.6 126.2,43 125.5,42.6C124.7,42.4 124.3,41.5 124.6,40.7Z"
                      style="fill:rgb(238,238,238);"/>
                <path d="M132.3,74.2C132.5,73.8 132.7,73.5 132.8,73.1C100.4,73.7 75,80.1 75,88C75,96.3 103.2,103 138,103C172.8,103 201,96.3 201,88C201,80 174.6,73.4 141.3,73C141.5,73.4 141.6,73.7 141.9,74.1C166.1,74.6 185.1,79.4 185.1,85.3C185.1,91.5 164,96.5 138,96.5C112,96.5 90.9,91.5 90.9,85.3C90.9,79.6 109,74.8 132.3,74.2Z"
                      style="fill:rgb(238,238,238);"/>
                <path d="M238,90.5C238,77.7 194.9,67.3 141.1,67C141,67.4 141,67.8 141,68.2C184.3,68.5 219,76.9 219,87.2C219,97.7 183,106.3 138.5,106.3C94,106.3 58,97.8 58,87.3C58,77.2 91.2,68.9 133.1,68.3C133.1,67.9 133,67.5 133,67C80.6,67.7 39,78 39,90.5C39,103.1 81.3,113.5 134.3,114C134.8,114.8 135,115.8 135,116.8C135,122.5 132.4,125.1 130.6,126.3C124.4,128.8 120,134.9 120,142.1C120,151.5 127.6,159.1 137,159.1C146.4,159.1 154,151.5 154,142.1C154,135.1 149.7,129 143.6,126.4C141.9,125.3 139.1,122.7 139,116.9C139,115.8 139.3,114.9 139.8,114C194.2,113.8 238,103.4 238,90.5ZM133.5,152.8C133.2,153.6 132.3,153.9 131.5,153.6C128.3,152.3 125.8,149.8 124.6,146.6C124.3,145.8 124.7,145 125.4,144.7C126.2,144.4 127,144.8 127.3,145.5C128.2,147.9 130.2,149.9 132.6,150.8C133.5,151.2 133.8,152.1 133.5,152.8Z"
                      style="fill:rgb(238,238,238);"/>
            </g>
        </g>
    </g>
</svg>
